<?xml version="1.0" encoding="UTF-8"?><svg id="uuid-037f28b6-34fe-4059-9f47-770cbe7ef8a7" xmlns="http://www.w3.org/2000/svg" viewBox="0 0 4640 1000"><path d="M55.811,728.4163c251.9671-.1229,456.3708-204.6125,456.3708-456.5981h271.8182c0,402.2056-326.0121,728.059-728.189,728.1818v-271.5837ZM512.1818,0H55.0724C12.0573,44.726,0,94.6252,0,132.4671c0,89.4519,67.089,139.3511,168.5982,139.3511h343.5836V0ZM1272.1565,878.2612c138.0563,0,243.9249-82.9962,243.9249-222.7572v-383.6858h-340.4881c-21.1777,22.02-27.1139,46.5869-27.1139,65.2177,0,44.04,33.03,68.607,83.0063,68.607h138.9187v240.5457c0,65.2178-34.7347,103.3317-100.7948,103.3317-53.3655,0-86.3955-26.2516-111.8048-66.0601l-111.8048,71.1439c49.1339,83.8486,132.1402,123.6571,226.1565,123.6571ZM1893.0536,878.2612c172.791,0,321.8573-131.2778,321.8573-309.995s-149.0663-310.005-321.8573-310.005-321.8573,131.2879-321.8573,310.005,149.0663,309.995,321.8573,309.995ZM1893.0536,744.4365c-100.7948,0-171.1064-76.2278-171.1064-176.1702s70.3117-176.1802,171.1064-176.1802,171.0864,76.2378,171.0864,176.1802-70.2916,176.1702-171.0864,176.1702ZM2491.0483,874.882c173.6333,0,297.3104-45.7447,297.3104-187.1902,0-63.5232-43.1978-110.9524-98.2478-131.2879,48.2716-25.4093,76.2278-71.9862,76.2278-127.0463,0-118.5832-118.5832-167.7071-268.5119-167.7071-55.8924,0-95.7009,2.5469-155.8448,10.1677-38.1039,5.0839-60.1239,28.7985-60.1239,68.607v524.2891c60.1239,5.0839,141.4456,10.1677,209.1902,10.1677ZM2427.5352,505.5854v-116.8786c23.7046-1.6946,51.6608-3.3892,85.5532-3.3892,49.1139,0,104.1639,9.3154,104.1639,60.1339,0,38.1139-26.2516,60.1339-82.1439,60.1339h-107.5732ZM2427.5352,746.1311v-123.6571h121.9725c50.8185,0,88.0801,20.3254,88.0801,61.8285,0,54.2078-55.8924,65.2178-122.8148,65.2178-30.4831,0-56.7547-.8423-87.2378-3.3892ZM2873.0944,340.4252v524.2891h145.6771v-198.2003c28.7985,2.5469,55.8924,3.3892,88.9224,3.3892,9.3254,0,17.7885,0,27.9562-.8423l95.7209,195.6533h160.0763l-118.5832-235.4618c55.9124-31.3454,99.9525-83.0063,99.9525-162.6233,0-136.3717-116.8986-204.9787-265.1227-204.9787-68.607,0-116.8786,2.5469-174.4756,10.1677-38.1039,5.0839-60.1239,28.7985-60.1239,68.607ZM3018.7715,542.857v-151.6133c24.567-3.3892,50.8185-4.2315,77.0701-4.2315,71.154,0,126.204,16.0939,126.204,77.9224,0,60.9862-55.0501,81.3116-120.2678,81.3116-33.8924,0-55.9124-.8523-83.0063-3.3892ZM3404.2068,864.7143h156.6871l43.1978-117.7309h239.7134l42.3354,117.7309h160.0964l-210.9149-528.5307c-23.7046-58.4393-60.1239-77.9224-110.9424-77.9224s-84.7109,19.4831-108.4155,78.7747l-211.7572,527.6783ZM3648.994,623.3163l75.3855-208.3579,74.5231,208.3579h-149.9086ZM4297.8273,261.6505c-51.6809,0-95.7209,3.3892-153.3179,11.01-38.1039,5.0839-60.1239,27.9562-60.1239,67.7647v524.2891c55.8924,6.7785,114.3317,10.1677,183.781,10.1677,243.1027,0,371.8336-113.4994,371.8336-308.3104,0-201.5895-148.224-304.9212-342.1727-304.9212ZM4230.0626,741.8996v-347.2666c32.1877-2.5469,46.587-2.5469,72.8385-2.5469,115.194,0,186.348,66.9124,186.348,174.4856,0,109.2578-71.154,177.8648-186.348,177.8648-29.6408,0-44.8823-.8423-72.8385-2.5369Z" style="fill:#b0e572;"/></svg>